<?xml version="1.0" encoding="utf-8"?>
<svg enable-background="new 0 0 3800 3000" viewBox="0 0 3800 3000" xmlns="http://www.w3.org/2000/svg">
  <path d="M3361.71 880.89c-395.44-444.29-896.13-189.11-1292.57-193.36-181.86-399.21-1101.1-655.84-1552.48 21.16-298.29 423.57-56.88 1106.99 674.52 1187.52 147.78 442.31 696.23 760.08 1396.55 425.02 881.59-453.96 1027.87-1155.09 773.98-1440.34z" style="fill: rgb(233, 233, 235);"/>
  <path fill="#dbc6ce" d="M3498.75 1830.08s-131.95 78.1-173.18 137.1c-41.17 58.87-104.34 82.77-104.34 82.77l-61.79-29.28 5.16 66.55c-127.9 52.89-253.8-24.01-283.52-44.35-4.36-2.94-6.67-4.64-6.67-4.64-10.75-170.43 208.2-209.45 355.21-239.45 146.8-29.95 269.13 31.3 269.13 31.3z"/>
  <path fill="#594a42" d="m3344.32 1850.92-152.27 82.93-21.99-21.51-23.69 23.27s-194.47 44.46-266.11 106.6l70.92-45.98 117.72-58.04 96.6-36.4c0 .01 123.28-40.51 178.82-50.87z" opacity=".2"/>
  <path fill="#fff" d="M3498.75 1830.08s-131.95 78.1-173.18 137.1c-41.17 58.87-104.34 82.77-104.34 82.77l-61.79-29.28 5.16 66.55c-127.9 52.89-253.8-24.01-283.52-44.35 4.24-.16 7.09-.09 7.09-.09 205.01 52.78 235.11-.26 235.11-.26l15.67-81.46 61.69 19.47s64.42-34.44 102.06-79.66c37.56-45.09 196.05-70.79 196.05-70.79z" opacity=".1"/>
  <path fill="#f6f6f6" d="M3344.24 1850.42c-84.16 17.74-166.82 42.51-247.16 73.42-79.88 31.71-158.41 69.35-227.02 122.36l-12.93 9.8c-4.35 3.22-8.12 7.16-12.21 10.7l-24.09 21.85c-15 15.45-30.26 30.65-44.86 46.48-12.24 13.13-24.21 26.5-36.13 39.92 1.85 2.64 3.75 5.25 5.69 7.83 12.31-13.91 24.7-27.74 37.35-41.33 14.32-15.97 29.3-31.32 44.02-46.92l23.37-21.78c3.97-3.54 7.62-7.47 11.86-10.7l12.63-9.84c67.12-53.08 144.84-91.48 224.08-123.94 79.6-31.99 161.81-57.95 245.59-76.92l-.19-.93z"/>
  <path fill="#e3e0e1" d="M3324.46 1462.94s-63.34 116.04-67.89 177.93c-4.56 61.77-40.83 107.33-40.83 107.33l-58.7 5.54 33.16 47.04c-71.46 95.57-198.65 94.09-229.64 92.12-4.53-.26-6.99-.5-6.99-.5-83.1-121.55 61.95-246.99 157.65-334.02 95.59-86.9 213.24-95.44 213.24-95.44z"/>
  <path fill="#594a42" d="m3219.21 1546.45-76.27 128.58-25.77-6.24-7.3 27.68s-124.51 118.67-150.2 196.3l32.28-65.33 61.64-94.9 55.54-69.56c0 .01 73.49-84.36 110.08-116.53z" opacity=".2"/>
  <path fill="#fff" d="M3324.46 1462.94s-63.34 116.04-67.89 177.93c-4.56 61.77-40.83 107.33-40.83 107.33l-58.7 5.54 33.16 47.04c-71.46 95.57-198.65 94.09-229.64 92.12 3.07-1.99 5.21-3.19 5.21-3.19 175.18-51.26 174.1-103.84 174.1-103.84l-24.29-67.27 54.3-12.77s32.55-53.91 40.51-104.02c7.95-49.96 114.07-138.87 114.07-138.87z" opacity=".1"/>
  <path fill="#f6f6f6" d="M3218.93 1546.12c-54.54 50.25-104.87 105.03-150.78 163.36-45.21 58.71-86.81 121.22-114.29 190.75l-5.26 12.96c-1.8 4.31-2.86 8.88-4.33 13.31l-8.22 26.81c-4.31 18.06-8.91 36.05-12.75 54.22-3.28 15.12-6.26 30.31-9.17 45.5 2.54 1.14 5.09 2.24 7.67 3.3 2.99-15.73 6.07-31.45 9.46-47.1 3.57-18.15 7.9-36.12 11.94-54.17l7.71-26.44c1.38-4.38 2.35-8.89 4.07-13.16l5.02-12.86c26.34-68.92 67-131.64 111.41-190.62 44.88-58.8 94.35-114.27 148.08-165.26l-.56-.6z"/>
  <path fill="#e3e0e1" d="M328.31 1949.25s63.34 116.04 67.89 177.93c4.56 61.77 40.83 107.33 40.83 107.33l58.7 5.54-33.16 47.04c71.46 95.57 198.65 94.09 229.64 92.12 4.53-.26 6.99-.5 6.99-.5 83.1-121.55-61.95-246.99-157.65-334.02-95.6-86.9-213.24-95.44-213.24-95.44z"/>
  <path fill="#594a42" d="m433.55 2032.77 76.27 128.58 25.77-6.24 7.3 27.68s124.51 118.67 150.2 196.3l-32.28-65.33-61.64-94.9-55.54-69.56s-73.49-84.37-110.08-116.53z" opacity=".2"/>
  <path fill="#fff" d="M328.31 1949.25s63.34 116.04 67.89 177.93c4.56 61.77 40.83 107.33 40.83 107.33l58.7 5.54-33.16 47.04c71.46 95.57 198.65 94.09 229.64 92.12-3.07-1.99-5.21-3.19-5.21-3.19-175.18-51.26-174.1-103.84-174.1-103.84l24.29-67.27-54.3-12.77s-32.55-53.91-40.51-104.02c-7.95-49.96-114.07-138.87-114.07-138.87z" opacity=".1"/>
  <path fill="#f6f6f6" d="M433.84 2032.43c54.54 50.25 104.87 105.03 150.78 163.36 45.21 58.71 86.81 121.22 114.29 190.75l5.26 12.96c1.8 4.31 2.86 8.88 4.33 13.32l8.22 26.81c4.3 18.06 8.91 36.05 12.75 54.22 3.28 15.12 6.26 30.31 9.17 45.5-2.54 1.14-5.09 2.24-7.67 3.3-2.99-15.73-6.07-31.45-9.46-47.09-3.57-18.15-7.9-36.12-11.94-54.17l-7.71-26.44c-1.38-4.38-2.35-8.89-4.07-13.16l-5.02-12.86c-26.34-68.92-67-131.64-111.41-190.62-44.88-58.8-94.35-114.27-148.08-165.26l.56-.62z"/>
  <path fill="#e3e0e1" d="M3428.64 2050.98c-12.71 24.24-32.55 31.18-50.55 27.51-17.97-4.61-39.34-15.57-49.75-29.99-10.76-12.98 8.08-43.06 51.14-50.95 43.87-6.72 62.98 29.56 49.16 53.43zM528.75 1868.95c-12.71 24.24-32.55 31.18-50.55 27.51-17.97-4.61-39.34-15.57-49.75-29.99-10.76-12.98 8.08-43.06 51.14-50.95 43.88-6.72 62.98 29.55 49.16 53.43z"/>
  <path fill="#dbc6ce" d="m709.54 1144.74 105.05 1374.45 2129.62 12.3 85.95-1351.36z"/>
  <path fill="#594a42" d="M2943.39 1820.36c-17.51 18.89-36.94 35.21-59.01 48.49-21.8 13.12-44.81 24.11-66.51 37.41-23.87 14.63-46.08 31.56-56.52 58.47-9.15 23.58-9.3 49.25-12.7 74.01-3.27 23.85-10.18 47.68-26.03 66.35-13.41 15.79-31.44 26.65-50.16 35.03-41.77 18.7-87.3 27.72-126.34 52.55-39.96 25.42-66.21 64.04-85.85 106.34-23.2 49.94-42.71 101.11-58.18 153.98-7.27 24.86-13.81 49.97-19.62 75.25l561.75 3.25 50.3-790.85c-12.31 29.21-29.23 56.1-51.13 79.72zM1303.25 1305.39c408.52 12.23 816.89 21 1225.59 23.66 163.92 1.07 327.83 1.49 491.75 1.38l9.56-150.3-2320.62-35.39 11.33 148.19c194.18 1.47 388.3 6.65 582.39 12.46z" opacity=".2"/>
  <path fill="#385c65" d="m3030.15 887.7-24.09-276.99-2210.58-2.48-85.95 272.34zM954.58 1480.71l42.22 552.42 855.94 4.95 34.54-543.15z"/>
  <path fill="#385c65" d="M658.61 2482.91v67.91h2403.38v-61.54l-422.32 10.61 108.23-1003.8-693.95-19.1 6.36 1016.53z"/>
  <path fill="#fbf4fe" d="m1002.33 1527.51 37.9 506.04 768.3 4.53 31-497.54z"/>
  <path fill="#385c65" d="M2094.27 2531.49h511.45l106.11-1000.6-617.56-22.69zM994.45 2014.55h858.29v47.05H994.45zM628.37 916.59v262.37c0 62.53 50.69 113.22 113.22 113.22s113.22-50.69 113.22-113.22V916.59H628.37z"/>
  <path fill="#fdf6fe" d="M854.81 916.59v262.37c0 62.53 50.69 113.22 113.22 113.22s113.22-50.69 113.22-113.22V916.59H854.81z"/>
  <path fill="#385c65" d="M1081.26 916.59v262.37c0 62.53 50.69 113.22 113.22 113.22s113.22-50.69 113.22-113.22V916.59h-226.44z"/>
  <path fill="#fdf6fe" d="M1307.71 916.59v262.37c0 62.53 50.69 113.22 113.22 113.22s113.22-50.69 113.22-113.22V916.59h-226.44z"/>
  <path fill="#385c65" d="M1534.15 916.59v262.37c0 62.53 50.69 113.22 113.22 113.22s113.22-50.69 113.22-113.22V916.59h-226.44z"/>
  <path fill="#fdf6fe" d="M1760.6 916.59v262.37c0 62.53 50.69 113.22 113.22 113.22s113.22-50.69 113.22-113.22V916.59H1760.6z"/>
  <path fill="#385c65" d="M1987.05 916.59v262.37c0 62.53 50.69 113.22 113.22 113.22s113.22-50.69 113.22-113.22V916.59h-226.44z"/>
  <path fill="#fdf6fe" d="M2213.5 916.59v262.37c0 62.53 50.69 113.22 113.22 113.22s113.22-50.69 113.22-113.22V916.59H2213.5z"/>
  <path fill="#385c65" d="M2439.94 916.59v262.37c0 62.53 50.69 113.22 113.22 113.22s113.22-50.69 113.22-113.22V916.59h-226.44zM2892.84 916.59v262.37c0 62.53 50.69 113.22 113.22 113.22s113.22-50.69 113.22-113.22V916.59h-226.44z"/>
  <path fill="#fdf6fe" d="M2666.39 916.59v262.37c0 62.53 50.69 113.22 113.22 113.22s113.22-50.69 113.22-113.22V916.59h-226.44z"/>
  <path fill="#1b2e36" d="m854.81 918.91 114.6-148.75H768.43L628.37 918.91z"/>
  <path fill="#eff1f2" d="m1081.26 918.91 89.13-148.75H969.41l-114.6 148.75z"/>
  <path fill="#1b2e36" d="m1307.71 918.91 63.66-148.75h-200.98l-89.13 148.75z"/>
  <path fill="#eff1f2" d="m1534.15 918.91 38.2-148.75h-200.98l-63.66 148.75z"/>
  <path fill="#1b2e36" d="m1760.6 918.91 12.74-148.75h-200.99l-38.2 148.75z"/>
  <path fill="#eff1f2" d="m1987.05 918.91-12.73-148.75h-200.98l-12.74 148.75z"/>
  <path fill="#1b2e36" d="m2213.5 918.91-38.2-148.75h-200.98l12.73 148.75z"/>
  <path fill="#eff1f2" d="m2439.94 918.91-63.66-148.75H2175.3l38.2 148.75z"/>
  <path fill="#1b2e36" d="m2666.39 918.91-89.13-148.75h-200.98l63.66 148.75zM3119.29 918.91l-140.07-148.75h-200.98l114.6 148.75z"/>
  <path fill="#eff1f2" d="m2892.84 918.91-114.6-148.75h-200.98l89.13 148.75z"/>
  <path fill="#1b2e36" d="M2094.27 1805.4h89.13l35.02 273.77 113-17.57 20.7 148.08 33.42-359.71H2489l17.5 157.57 60.49-310.37 126.34 8.19-87.61 826.13h-511.45z" opacity=".3"/>
  <path fill="#1b2e36" d="m1013.68 1679.11 108.02 13.44 35.02 121.17 113.01-7.78 20.69 65.54 33.42-159.21h103.46l17.5 69.75 60.49-137.37 328.41 3.62-25.17 365.64h-775.96z" opacity=".1"/>
  <path fill="#1b2e36" d="M628.37 2531.49h2490.92v70.27H628.37z"/>
  <path fill="#ffbf9f" d="M3364.06 2649.15h-595.4l73.1-587.55h449.2z"/>
  <path fill="#e36247" d="M2962.63 2134.88c0 11.33-9.19 20.52-20.52 20.52s-20.52-9.19-20.52-20.52 9.19-20.52 20.52-20.52 20.52 9.19 20.52 20.52zM3208.33 2134.88c0 11.33-9.19 20.52-20.52 20.52s-20.52-9.19-20.52-20.52 9.19-20.52 20.52-20.52 20.52 9.19 20.52 20.52z"/>
  <path fill="#1b2e36" d="M2934.05 2142.83c5.51 54.68 43.41 100.3 97.06 113.89 26.2 6.63 56.7 6.33 81.26-6.01 12.11-6.09 20.73-16.21 26.37-28.39 5.04-10.86 9-19.51 17.98-27.77 17.33-15.95 38-27.76 40.43-53.47 1.1-11.7-17.18-11.63-18.27 0-2.03 21.45-29.23 32.86-41.99 47.55-8.46 9.75-11.22 21.32-17.89 32.03-8.77 14.1-25.2 19.16-40.9 21.17-61.62 7.91-119.52-37.07-125.76-99-1.18-11.59-19.47-11.71-18.29 0z"/>
  <path fill="#fa9c70" d="M3095.06 2649.15h-492.39l60.46-485.9h371.48z"/>
  <path fill="#e36247" d="M2763.08 2223.86c0 9.37-7.6 16.97-16.97 16.97s-16.97-7.6-16.97-16.97 7.6-16.97 16.97-16.97 16.97 7.6 16.97 16.97zM2966.27 2223.86c0 9.37-7.6 16.97-16.97 16.97s-16.97-7.6-16.97-16.97 7.6-16.97 16.97-16.97 16.97 7.6 16.97 16.97z"/>
  <path fill="#1b2e36" d="M2739.45 2230.43c4.56 45.22 35.9 82.95 80.27 94.18 21.67 5.49 46.89 5.23 67.2-4.97 10.01-5.03 17.14-13.41 21.81-23.48 4.16-8.98 7.45-16.14 14.87-22.96 14.33-13.19 31.42-22.96 33.43-44.22.91-9.68-14.21-9.62-15.11 0-1.67 17.74-24.17 27.17-34.73 39.33-7 8.06-9.28 17.63-14.8 26.49-7.25 11.66-20.84 15.84-33.82 17.51-50.96 6.55-98.84-30.66-104-81.87-.97-9.6-16.1-9.7-15.12-.01z"/>
  <path fill="#ff9c92" d="M624.77 1821.49s-133.98 235.39-81.94 273.32c52.04 37.93 131.17-27.13 131.17-27.13l56.27-205.74-105.5-40.45zM1120.68 1768.1s168.92 211.72 123.41 257.27c-45.52 45.56-133.8-6.42-133.8-6.42l-87.56-194.5 97.95-56.35z"/>
  <path fill="#f28b86" d="M1249.45 1984.17s66.29-85.18 96.83-87c30.54-1.82 37.42 10.5 37.42 10.5s-76.16 197.22-139.81 193.22c-63.66-3.99 5.56-116.72 5.56-116.72z"/>
  <path fill="#1b2e36" d="M1042.63 2592.51c-33.39 9.44-320.46 89.06-513.24 68.81-207.12-21.59-220.95-118.57-227.53-165.12-6.75-46.21 43.18-110.98 148.59-139.82 13.32-3.54 32.55-5.23 56.17-5.23 153.82 0 541.86 42.01 578.8 49.43l-42.79 191.93z"/>
  <path fill="#ff9c92" d="m665.5 2659.15-112.01-.02-10.65-75.23 93.01-16.12z"/>
  <path fill="#395b64" d="M591.25 2670.24c-12.54 17.3-32.73 29.22-51.8 37.19-21.73 9.08-46.11-5.32-49.1-28.68l-10.73-84.04c-2.8-21.92 14.71-41.35 36.79-40.39 18.89.83 40.14 4.77 56.93 15.96 15.8 10.7 25.57 26.5 29.29 47.19 3.49 19.76-.46 37.43-11.38 52.77z"/>
  <path fill="#1b2e36" d="M1427.86 2538.37c-1.52 28.5-7.76 84.67-24.63 100.02-17.03 15.18-89.05 1.01-119.75-5.06-3.04-.67-5.4-1.18-7.59-1.52l151.97-93.44z"/>
  <path fill="#395b64" d="M1436.29 2538.54c-3.04 3.37-6.07 6.75-9.11 9.96-43.18 44.52-101.87 74.38-129.03 86.69-.51.17-1.01.51-1.52.68-4.38 1.86-10.11 3.54-17.03 5.23-123.8 30.36-627.26 37.11-632.83 37.11-2.7.17-5.23-.84-7.76-3.2-.84-.84-1.85-1.69-2.7-2.87-.17-.34-.5-.51-.67-.85-1.52-2.03-3.04-4.56-4.56-7.42 0-.17-.17-.34-.17-.51-11.64-23.11-18.05-68.31-21.25-100.53-.33-3.03-.5-6.07-.84-8.77-.34-4.89-.67-9.28-.84-13.16l387.76-123.12 16.7-5.23 32.38-10.29 26.48-8.43 140.84-44.7c.5-.17 16.19-5.4 39.8-10.63v-.16c2.7-.51 5.57-1.02 8.6-1.69 23.95-4.9 53.97-9.45 83.99-9.62 7.93 0 15.85.17 23.61.85 46.21 3.88 88.55 21.25 103.73 66.79 18.9 56.84-1.85 105.25-35.58 143.87z"/>
  <path fill="#e36247" d="M881.1 1588.93c-184.5 7.23-325.74 688.29-275.76 750.4 164.38 204.28 630.07 57.94 661.12-3.92 59.67-118.9-174.88-754.73-385.36-746.48z"/>
  <path fill="#1b2e36" d="M876.29 1538.77c-24.03 25.01-12.03 43.49-43.4 24.76-31.37-18.74-52.06-20.9-53.22-78.33-1.16-57.43 22.13-23.04 25.63-73.46 3.5-50.43 26.57-27 49.94-52.65 23.37-25.65 62.07 4.56 77.39-3.49 15.33-8.05 38.56 23.11 22.9 47.31-15.65 24.2-69.09 31.09-93.76 56.11-24.68 25.02 14.52 79.75 14.52 79.75z"/>
  <path fill="#ff9c92" d="m845.28 1613.94 5.24-74.33s-1.75-9.77-9.95-10.19c-12.72-.64-19.83-22.09-13.23-32.3 9.32-14.38 21.23-1.77 21.23-1.77s28.44-43.06 49.98-51.75c29.23-11.8 57.34-2.01 57.34-2.01s25.43 95.94 9.43 120.18c-15.99 24.24-51.48 14.74-51.48 14.74l12.84 48.51s-12.02 29.82-41.36 25.77c-29.33-4.03-40.04-36.85-40.04-36.85z"/>
  <path fill="#0f1019" d="M932.37 1578.24c-5.29-2.53-10.74-4.75-15.94-6.67-11.95-4.44-24.21-9.39-36.66-12.86 4.78 16.51 15.97 30.93 21.17 47.38 5.41 17.08 6.74 13.17-6.31 26.59-6.04 6.21-13.6 10.65-21.73 14.11 3.75 1.84 7.77 3.37 12.42 4.01 29.34 4.05 41.36-25.78 41.36-25.78l-12.84-48.51c.01.01 8.26 2.14 18.53 1.73z" opacity=".1"/>
  <path fill="#ef9a9e" d="M839.04 1498.05s-8.55-.03-9.21 4.01c-.66 4.04 3.15 19.09 3.15 19.09s.24-14.2 1.52-17c1.28-2.81 5.71-4.71 4.54-6.1z"/>
  <path fill="#33133f" d="M885.77 1525.83c-.01 3.91 4.77 7.08 10.68 7.1 5.91.02 10.71-3.14 10.72-7.05.01-3.91-4.77-7.08-10.68-7.1-5.92-.01-10.72 3.14-10.72 7.05zM950.95 1515.37c-.01 3.91 4.77 7.09 10.68 7.1 5.91.01 10.71-3.14 10.72-7.05.01-3.9-4.77-7.08-10.68-7.1-5.92-.01-10.71 3.14-10.72 7.05z" opacity=".05"/>
  <path fill="#1b2e36" d="M935.52 1526.18c2.59-.55 4.52-1.77 4.66-1.87 1.21-.78 1.55-2.4.77-3.61-.78-1.2-2.39-1.53-3.59-.77-.04.02-3.84 2.39-6.47.68-1.2-.79-2.82-.44-3.61.75-.79 1.2-.45 2.82.75 3.61 2.53 1.65 5.26 1.68 7.49 1.21zM947.31 1476.13c.26-.06.51-.15.75-.29.13-.06 12.23-6.99 22.05-8.25 1.42-.22 2.43-1.5 2.24-2.93a2.605 2.605 0 0 0-2.93-2.24c-10.82 1.47-23.42 8.6-23.95 8.9-1.25.71-1.68 2.3-.97 3.56a2.616 2.616 0 0 0 2.81 1.25zM956.02 1490.04c.48 2.87 2.98 4.85 5.6 4.41 2.62-.43 4.35-3.11 3.87-5.98-.48-2.87-2.99-4.85-5.6-4.41-2.62.43-4.35 3.11-3.87 5.98zM911.55 1478.73c.99-.21 1.82-.99 2.02-2.05a2.62 2.62 0 0 0-2.07-3.06c-.6-.11-14.81-2.81-25.54-.67-1.3.07-2.32 1.65-2.04 3.07a2.596 2.596 0 0 0 3.07 2.04c9.7-1.94 23.39.66 23.53.69.35.06.7.06 1.03-.02zM907.58 1494.75c.48 2.87-1.26 5.55-3.87 5.99-2.62.43-5.12-1.55-5.6-4.41-.48-2.87 1.26-5.55 3.87-5.98 2.61-.45 5.12 1.53 5.6 4.4zM946.16 1544.8c.48 2.87-1.26 5.55-3.88 5.98-2.61.43-5.12-1.55-5.6-4.41-.48-2.87 1.26-5.55 3.87-5.99 2.62-.43 5.13 1.55 5.61 4.42z"/>
  <path fill="#1b2e36" d="M866.37 1479.26c-8.82-4.59-11.65 30.57-11.65 30.57s-4.42-11.21-6.77-15.68c-2.35-4.47-4.83.74-12.25-15.24-7.43-15.99-23.29-18.26 11.26-49.93 34.54-31.68 16.33-38.42 60.63-34.47 44.3 3.95 65.09-5.51 68.38 13.8 3.3 19.3-11.72 42.84-27.28 39.6-15.56-3.24 2.5-3.93-32.79 6.47-35.3 10.39-35.18 32.33-49.53 24.88z"/>
  <path fill="#ae3b2a" d="M871.48 2124.19h700.87v499.85H871.48z"/>
  <path fill="#e36247" d="m1525.66 2188.73 46.69-64.54v499.85l-46.69 64.54zM824.79 2188.73l46.69-64.54v499.85l-46.69 64.54z"/>
  <path fill="#ffbf9f" d="M1118.58 2246.17s-160.61-70.01-129.77-162.78c20.86-62.74 62.66-52.76 90.05-9.36 0 0 13.64-79.4 83.04-46.03 69.39 33.37 9.58 180.44-43.32 218.17z"/>
  <path fill="#fa9c70" d="M1104.27 2374.11s-160.62-70.01-129.77-162.78c20.86-62.74 62.66-52.76 90.05-9.36 0 0 13.64-79.4 83.04-46.03 69.39 33.38 9.59 180.44-43.32 218.17z"/>
  <path fill="#ae3b2a" d="M1252.5 2240.57s-138.39-60.32-111.81-140.25c17.97-54.05 53.99-45.46 77.59-8.07 0 0 11.75-68.41 71.55-39.66 59.79 28.76 8.26 155.47-37.33 187.98z"/>
  <path fill="#ffbf9f" d="M1220.97 2357.03s-118.07-129.45-52.06-201.56c44.64-48.77 78.73-22.61 86.03 28.19 0 0 44.85-66.93 94.59-8.14 49.75 58.78-64.86 168.64-128.56 181.51z"/>
  <path fill="#fa9c70" d="M963.75 2233.22s-121.47-81.67-82.17-153.28c26.57-48.42 59.42-33.94 75.41 5.84 0 0 23.14-63.2 75.16-25.34 52 37.86-19.25 149.73-68.4 172.78z"/>
  <path fill="#fff" d="m1085.8 2080.26 40.83 52.47 66.38-3.89-37.29 55.05 24.21 61.93-63.88-18.45-51.41 42.16-2.19-66.45-55.99-35.87 62.52-22.62z"/>
  <path fill="#fa9c70" d="m1239.48 2101.93 29.23 37.56 47.51-2.78-26.69 39.4 17.33 44.33-45.73-13.21-36.79 30.18-1.57-47.57-40.08-25.67 44.76-16.19z"/>
  <path fill="#ffbf9f" d="M1258.34 2216.84s-107.38-138.45-35.83-205.07c48.39-45.05 80.28-16.26 83.51 34.96 0 0 50.04-63.14 94.94-.57 44.89 62.56-78.11 162.94-142.62 170.68z"/>
  <path fill="#fa9c70" d="M1184.43 2322.26s-107.38-138.45-35.83-205.07c48.39-45.05 80.28-16.26 83.51 34.96 0 0 50.04-63.14 94.94-.57 44.9 62.56-78.1 162.94-142.62 170.68z"/>
  <path fill="#ae3b2a" d="M1378.54 2276.14s-92.52-119.29-30.87-176.69c41.69-38.82 69.17-14.01 71.95 30.12 0 0 43.12-54.4 81.8-.49 38.69 53.91-67.29 140.39-122.88 147.06z"/>
  <path fill="#ffbf9f" d="M1295.03 2363.22s-41.54-170.21 50.97-201.84c62.56-21.39 79.93 17.91 61.98 65.99 0 0 71.45-37.22 86.91 38.21 15.46 75.44-137.79 116.9-199.86 97.64z"/>
  <path fill="#fff" d="m1309.12 2055.53 10.67 65.63 60.12 28.41-59.12 30.43-8.45 65.95-47.21-46.82-65.33 12.35 29.94-59.37-31.93-58.32 65.71 10.13z"/>
  <path fill="#fa9c70" d="m1433.59 2148.24 7.64 46.97 43.03 20.34-42.32 21.78-6.05 47.21-33.79-33.52-46.76 8.84 21.43-42.49-22.85-41.74 47.03 7.25z"/>
  <path fill="#21264c" d="m912.7 2188.78-19.2-22.66h210.29l-6.38 9.86 412.32-9.82-6.02 24z" opacity=".2"/>
  <path fill="#fa9c70" d="M824.79 2188.73h700.87v499.84H824.79z"/>
  <path fill="#e36247" d="M808.05 1626.61s-240.7 157.09-212.86 217.31c27.83 60.22 105.21 69.02 105.21 69.02l107.65-286.33zM977.86 1626.61s240.7 157.09 212.86 217.31c-27.83 60.22-105.21 69.02-105.21 69.02l-107.65-286.33z"/>
  <path fill="#ff9c92" d="M900.23 1861.44s-31.71-2.45-38.25 3.94c-15.17 14.83-18.41 36.09-15.79 42.28 16.4-19.58 54.04-46.22 54.04-46.22z"/>
  <path fill="#fff" d="M860.05 1879c.17-4.18 1.05-8.37.92-12.56-14.28 14.77-17.34 35.17-14.79 41.22 4.29-5.12 10.04-10.73 16.18-16.21-1.46-4.01-2.48-8.12-2.31-12.45z" opacity=".2"/>
  <path fill="#fa9c70" d="M1318.08 1781.77H929.95c-36.24 0-65.62 29.38-65.62 65.62 0 36.24 29.38 65.62 65.62 65.62h388.13c36.24 0 65.62-29.38 65.62-65.62 0-36.24-29.38-65.62-65.62-65.62z"/>
  <path d="M993.33 1879.27c-13.39 0-23.85-6.65-24.29-19.24h16.14c.44 4.79 3.46 7.09 7.71 7.09 4.43 0 7.27-2.22 7.27-5.85 0-11.53-31.12-5.32-30.94-27.4 0-11.79 9.66-18.35 22.7-18.35 13.57 0 22.7 6.74 23.32 18.62h-16.4c-.27-3.99-3.1-6.39-7.18-6.47-3.64-.09-6.38 1.77-6.38 5.67 0 10.82 30.77 5.94 30.77 26.77-.02 10.47-8.17 19.16-22.72 19.16zM1030.87 1816.4h48.15v12.15h-16.49v50.1h-15.16v-50.1h-16.49v-12.15zM1124.98 1879.27c-17.64 0-32.01-13.21-32.01-31.92s14.36-31.83 32.01-31.83c17.73 0 31.83 13.12 31.83 31.83 0 18.7-14.18 31.92-31.83 31.92zm0-13.84c9.93 0 16.4-7.18 16.4-18.09 0-11.08-6.47-18.09-16.4-18.09-10.11 0-16.49 7-16.49 18.09 0 10.91 6.39 18.09 16.49 18.09zM1199.6 1816.4c15.25 0 22.88 8.78 22.88 19.59 0 7.8-4.26 15.17-13.83 18l14.36 24.65h-17.11l-12.94-23.5h-3.64v23.5h-15.16v-62.25h25.44zm-.89 12.59h-9.4v15.43h9.4c5.67 0 8.34-2.93 8.34-7.8 0-4.62-2.66-7.63-8.34-7.63zM1278.99 1828.55h-22.97v12.59h20.31v11.7h-20.31v13.66h22.97v12.15h-38.13v-62.25h38.13v12.15z" style="fill: rgb(56, 92, 101);"/>
  <path fill="#ff9c92" d="M904.23 1954.57c5.69-2.85 11.23-6.01 16.16-9.43l.02.02c.02-.02.02-.02.05-.02.25-.16 1.62-.91 3.6-2.04l.02-.02c1.57-.9 3.44-2.07 5.42-3.38 0 0 23.16-13.22 22.16-21.18-1-7.96-6.97-8.93-6.97-8.93s4.95-6 1.09-12.57c-3.85-6.57-9.39-5.86-9.39-5.86s4.71-5.41.36-12.89c-4.36-7.48-12.25-7.26-12.25-7.26s6.6-8.61-5.52-14.36c-12.06-5.72-27.06 6.95-27.76 7.4-3.01 1.85-5.85 3.81-8.51 5.79-.72.55-36.1 34.52-36.7 35.19-42.97 48.32-371.67 67.22-303.15 189.76 59.11 105.72 325.95-133.05 325.95-133.05s14.08 3.49 35.42-7.17z"/>
  <path fill="#fff" d="m920.39 1945.14.02.02c.02-.02.02-.02.05-.02.25-.16 1.62-.91 3.6-2.04l.02-.02c1.57-.9 3.44-2.07 5.42-3.38 0 0 23.16-13.22 22.16-21.18-1-7.96-6.97-8.93-6.97-8.93s4.95-6 1.09-12.57c-3.85-6.57-9.39-5.86-9.39-5.86s4.71-5.41.36-12.89c-4.36-7.48-12.25-7.26-12.25-7.26s6.6-8.61-5.52-14.36c-4.34-2.06-9.05-1.72-13.34-.45 4.69 1.86 9.29 5.23 11.65 9.62.61 1.13 1.06 2.36 1.22 3.64.19 1.46-.04 2.93.01 4.4.11 3.18 2.74 4.99 4.95 6.93 2.85 2.51 5.39 5.24 6.52 8.95.85 2.78.84 5.7 1.03 8.58.2 3.02.85 5.96 2.77 8.38 1.83 2.31 3.62 4.42 4.51 7.29 1.54 4.96-.38 9.86-3.51 13.74-2.16 2.69-4.87 4.85-7.5 7.06-3.43 2.87-6.91 5.68-10.39 8.49-5.96 4.81-11.82 9.63-18.32 13.69 1.85-.68 3.73-1.45 5.66-2.42 5.68-2.82 11.21-5.99 16.15-9.41z" opacity=".2"/>
  <path fill="#ff9c92" d="M1331.84 1950.75c-27.67-15.65-41.14-62.51-30.38-71.49 5.04-4.2 16.95 9.75 28.46 25.84-13.35-20.19-25.42-44.01-18.04-45.84 5.67-1.41 22.32 22.35 34.4 37.9-7.31-11.42-22.83-37.57-18.25-41.32 5.83-4.78 23.88 17.72 33.9 33.57-5.32-9.84-14.16-27.66-9.51-30.42 4.12-2.45 10.6.14 23.12 20.12 7.31 11.66 9.31 9.89 11.58 15.85 1.76 4.59 4.09 9.16 3.69 13.56-1.94 21.18-48.8 47.99-58.97 42.23z"/>
  <path fill="#fff" d="M1354.11 1860.18c-1.94 1.65.69 9.25 1.48 9.7 0 0 5.68-3.23 6.39-4.22.72-.99-5.94-7.13-7.87-5.48zM1328.94 1856.32c-1.94 1.65.69 9.25 1.49 9.7 0 0 5.68-3.23 6.39-4.22.71-1-5.94-7.13-7.88-5.48zM1311.88 1861.59c-1.94 1.65.69 9.25 1.48 9.7 0 0 5.68-3.23 6.39-4.22.73-1-5.93-7.13-7.87-5.48zM1302.1 1881.89c-1.94 1.65.69 9.25 1.48 9.69 0 0 5.68-3.23 6.39-4.22.72-.98-5.94-7.12-7.87-5.47z" opacity=".2"/>
</svg>